HIERARCHY
ROOT Hips
{
  OFFSET 0 89.5177 0.535
  CHANNELS 6 Xposition Yposition Zposition Zrotation Xrotation Yrotation
  JOINT Spine
  {
    OFFSET 12.0259 -0.162855 1.69034e-005
    CHANNELS 3 Zrotation Xrotation Yrotation
    JOINT Spine1
    {
      OFFSET 15.3169 -0.0121922 0
      CHANNELS 3 Zrotation Xrotation Yrotation
      JOINT Spine2
      {
        OFFSET 15.3176 -0.0121908 0
        CHANNELS 3 Zrotation Xrotation Yrotation
        JOINT Neck
        {
          OFFSET 19.9142 1.56338 0
          CHANNELS 3 Zrotation Xrotation Yrotation
          JOINT Head
          {
            OFFSET 6.92651 0 0
            CHANNELS 3 Zrotation Xrotation Yrotation
            End Site
            {
              OFFSET 20.7666 0 0
            }
          }
          JOINT LeftShoulder
          {
            OFFSET -6.20654 0.708824 7.28219
            CHANNELS 3 Zrotation Xrotation Yrotation
            JOINT LeftArm
            {
              OFFSET 14.108 0 -1.52588e-005
              CHANNELS 3 Zrotation Xrotation Yrotation
              JOINT LeftForeArm
              {
                OFFSET 28.5802 0 0
                CHANNELS 3 Zrotation Xrotation Yrotation
                JOINT LeftHand
                {
                  OFFSET 27.092 0 0
                  CHANNELS 3 Zrotation Xrotation Yrotation
                  End Site
                  {
                    OFFSET 9.55928 -0.186424 0.145352
                  }
                }
              }
            }
          }
          JOINT RightShoulder
          {
            OFFSET -6.20654 0.708866 -7.28218
            CHANNELS 3 Zrotation Xrotation Yrotation
            JOINT RightArm
            {
              OFFSET 14.108 0 1.52588e-005
              CHANNELS 3 Zrotation Xrotation Yrotation
              JOINT RightForeArm
              {
                OFFSET 28.5802 0 0
                CHANNELS 3 Zrotation Xrotation Yrotation
                JOINT RightHand
                {
                  OFFSET 27.092 0 0
                  CHANNELS 3 Zrotation Xrotation Yrotation
                  End Site
                  {
                    OFFSET 9.55929 -0.186417 -0.145354
                  }
                }
              }
            }
          }
        }
      }
    }
  }
  JOINT LeftUpLeg
  {
    OFFSET 0.005 -0.535 8.837
    CHANNELS 3 Zrotation Xrotation Yrotation
    JOINT LeftLeg
    {
      OFFSET 39.9035 0 0
      CHANNELS 3 Zrotation Xrotation Yrotation
      JOINT LeftFoot
      {
        OFFSET 39.6689 0 0
        CHANNELS 3 Zrotation Xrotation Yrotation
        JOINT LeftToe
        {
          OFFSET 10.1624 13.6296 0
          CHANNELS 3 Zrotation Xrotation Yrotation
          End Site
          {
            OFFSET 8.38147 0 0
          }
        }
      }
    }
  }
  JOINT RightUpLeg
  {
    OFFSET 0.005 -0.535 -8.837
    CHANNELS 3 Zrotation Xrotation Yrotation
    JOINT RightLeg
    {
      OFFSET 39.9035 0 0
      CHANNELS 3 Zrotation Xrotation Yrotation
      JOINT RightFoot
      {
        OFFSET 39.6689 0 0
        CHANNELS 3 Zrotation Xrotation Yrotation
        JOINT RightToe
        {
          OFFSET 10.1624 13.6296 0
          CHANNELS 3 Zrotation Xrotation Yrotation
          End Site
          {
            OFFSET 8.38147 0 0
          }
        }
      }
    }
  }
}
MOTION
Frames:	19
Frame Time:	0.0333333
273.9 89.3082 -4.93211 -14.2985 -82.0576 -98.9281 2.03554 -1.55232 -1.26491 4.03859 -3.14776 -2.4751 4.03859 -3.14776 -2.47511 -8.30748e-012 -9.0191e-006 -5.27751e-005 3.37348 -6.49676 7.88513 -178.55 -14.3708 -84.1748 11.4288 -44.821 26.7593 -15.8077 3.18055e-015 -6.36111e-015 -65.1396 -30.3568 -53.5798 179.086 15.1623 93.4888 74.4023 63.4908 -92.2611 -8.35141 -1.49088e-016 -3.18055e-015 -48.4047 26.4097 40.4023 8.15266 8.12286 174.977 -11.4873 0 -0 9.90149 4.96853 -8.82617 90 8.69683e-017 -0 8.06244 -13.7051 175.647 -11.9596 -1.59028e-015 1.19271e-015 13.5423 -1.92588 -0.776672 90 7.76503e-018 3.18055e-015 
273.906 89.3142 -4.83888 -15.4796 -82.0343 -100.137 2.04321 -1.53358 -1.25197 4.05465 -3.11001 -2.44963 4.05465 -3.11001 -2.44964 -8.30708e-012 -9.0191e-006 -5.27751e-005 3.33698 -6.27682 7.67167 -178.539 -14.3879 -84.1394 11.2899 -45.0198 26.7402 -15.6661 -3.18055e-015 -3.18055e-015 -65.204 -30.2963 -53.618 179.101 15.0351 93.4604 74.1525 63.3768 -91.9687 -8.29309 0 -7.95139e-016 -48.3384 26.5389 40.4669 8.05011 8.24578 175.004 -11.5617 0 -1.98785e-016 9.88728 4.94856 -8.85396 90 -5.40446e-016 -0 7.84509 -13.5851 175.629 -12.1989 3.18056e-015 1.19271e-015 13.5751 -1.95509 -0.697306 90 -6.83322e-017 1.59028e-015 
273.907 89.3193 -4.75207 -16.6765 -81.9908 -101.37 2.05772 -1.51327 -1.24291 4.08432 -3.06939 -2.4318 4.08432 -3.06939 -2.43181 -8.30748e-012 -9.0191e-006 -5.27751e-005 3.28678 -6.05138 7.48877 -178.542 -14.4275 -84.1681 11.1236 -45.1602 26.6827 -15.6297 6.36111e-015 -0 -65.0973 -30.3607 -53.532 179.105 14.9489 93.4664 74.2249 63.2872 -92.0265 -8.22116 -5.96354e-016 -0 -48.1313 26.5995 40.3569 8.01135 8.40846 175.031 -11.5865 -7.95139e-016 -1.98785e-016 9.87063 4.96557 -8.85161 90 -2.25496e-015 -3.97569e-016 7.67046 -13.4184 175.613 -12.4161 0 -3.97569e-016 13.6062 -1.99687 -0.603972 90 7.45443e-017 3.18055e-015 
273.907 89.3235 -4.65882 -17.6511 -81.9484 -102.379 2.07398 -1.4943 -1.23485 4.11743 -3.03152 -2.4159 4.11743 -3.03152 -2.41591 -8.30828e-012 -9.0191e-006 -5.27751e-005 3.26056 -5.80382 7.2825 -178.542 -14.4748 -84.1857 10.8595 -45.2813 26.5126 -15.6661 9.54166e-015 4.77083e-015 -65.0837 -30.3217 -53.479 179.106 14.8801 93.4774 74.008 63.2477 -91.773 -8.22182 -1.98785e-016 -0 -48.2399 26.5119 40.3933 7.94815 8.53646 175.053 -11.6285 -7.95139e-016 -0 9.84692 4.9534 -8.82978 90 -9.87711e-016 -3.97569e-016 7.50775 -13.2999 175.612 -12.5969 -6.36111e-015 -2.38542e-015 13.6124 -2.01779 -0.558762 90 -4.03781e-017 -1.59028e-015 
273.906 89.3276 -4.5742 -18.4151 -81.9222 -103.173 2.08446 -1.47925 -1.22652 4.13889 -3.00134 -2.39948 4.13889 -3.00134 -2.39948 -8.30788e-012 -9.0191e-006 -5.27751e-005 3.26991 -5.54769 7.14595 -178.555 -14.4987 -84.2449 10.649 -45.307 26.3545 -15.7741 -6.36111e-015 -3.18055e-015 -65.0992 -30.2888 -53.4687 179.099 14.8015 93.5239 74.0348 63.3034 -91.6555 -8.19851 -5.96354e-016 7.95139e-016 -48.0598 26.5715 40.2771 7.86818 8.67022 175.086 -11.6825 0 -1.98785e-016 9.8378 4.96001 -8.86828 90 1.44119e-015 1.19271e-015 7.36153 -13.2021 175.614 -12.7401 -1.59028e-015 7.95139e-016 13.6075 -2.02973 -0.523555 90 2.79541e-017 1.59028e-015 
273.897 89.3327 -4.4913 -18.7495 -81.9107 -103.526 2.09508 -1.47762 -1.21853 4.16039 -2.99802 -2.38326 4.16039 -2.99802 -2.38327 -8.30748e-012 -9.0191e-006 -5.27751e-005 3.29625 -5.27386 7.0337 -178.572 -14.5431 -84.3301 10.5034 -45.383 26.2625 -15.8637 -3.18055e-015 4.77083e-015 -65.1017 -30.2487 -53.4352 179.077 14.8032 93.6073 74.2354 63.4041 -91.7537 -8.19788 -1.98785e-016 -0 -47.9406 26.4901 40.1575 7.79217 8.73826 175.094 -11.7137 7.95139e-016 -0 9.78928 4.93987 -8.80658 90 -1.99406e-015 -0 7.24262 -13.1456 175.615 -12.8377 -4.77083e-015 -3.97569e-016 13.5846 -2.02885 -0.508578 90 -3.41661e-017 1.59028e-015 
273.884 89.3369 -4.42918 -18.6899 -81.9136 -103.481 2.1068 -1.48235 -1.21319 4.1839 -3.00752 -2.37211 4.1839 -3.00752 -2.37212 -8.30828e-012 -9.0191e-006 -5.27751e-005 3.33468 -5.03335 7.01634 -178.592 -14.5842 -84.4258 10.4076 -45.4548 26.2188 -15.9711 1.59028e-014 -1.59028e-015 -65.0487 -30.2737 -53.3856 179.054 14.9083 93.6716 73.9905 63.5404 -91.4991 -8.28867 -9.93923e-016 1.59028e-015 -47.7225 26.575 39.9989 7.75059 8.69497 175.095 -11.7015 7.95139e-016 3.97569e-016 9.74995 4.9179 -8.77784 90 2.86995e-015 -0 7.18613 -13.16 175.615 -12.8625 -1.59028e-015 -3.97569e-016 13.5534 -2.03264 -0.500939 90 -3.41661e-017 -1.59028e-015 
273.87 89.3403 -4.37471 -18.4608 -81.9232 -103.259 2.11855 -1.49183 -1.21096 4.20736 -3.02659 -2.36496 4.20736 -3.02659 -2.36497 -8.30748e-012 -9.0191e-006 -5.27751e-005 3.36999 -4.87503 7.03932 -178.604 -14.5722 -84.4674 10.3082 -45.4826 26.1092 -16.0346 0 3.18055e-015 -65.0327 -30.2636 -53.3556 179.036 14.9722 93.7265 74.1047 63.6717 -91.5248 -8.44113 -3.97569e-016 -0 -48.1239 26.5143 40.2929 7.6832 8.6961 175.123 -11.7591 7.95139e-016 1.98785e-016 9.76348 4.94026 -8.88812 90 2.54693e-016 3.97569e-016 7.16326 -13.1743 175.618 -12.8506 -1.59028e-015 -7.95139e-016 13.5175 -2.03001 -0.512157 90 -1.14922e-016 1.59028e-015 
273.848 89.3423 -4.32263 -18.2211 -81.9408 -103.019 2.12842 -1.50125 -1.20988 4.22689 -3.04561 -2.36424 4.22689 -3.04561 -2.36425 -8.30788e-012 -9.0191e-006 -5.27751e-005 3.38231 -4.80384 7.08943 -178.614 -14.5718 -84.5066 10.2814 -45.5824 26.098 -16.0451 0 -4.77083e-015 -65.1242 -30.1958 -53.4282 179.013 15.0716 93.7892 74.4707 63.7701 -91.801 -8.48728 -1.98785e-016 1.59028e-015 -48.1469 26.351 40.191 7.6427 8.66602 175.109 -11.7501 1.59028e-015 1.98785e-016 9.74482 4.9752 -8.91764 90 4.22417e-016 -0 7.0967 -13.1911 175.601 -12.8924 1.59028e-015 3.97569e-016 13.5019 -2.02024 -0.511817 90 -3.10601e-017 4.77083e-015 
273.819 89.3433 -4.28266 -18.0051 -81.9502 -102.805 2.13879 -1.51058 -1.20934 4.24738 -3.06446 -2.36473 4.24738 -3.06446 -2.36474 -8.30788e-012 -9.0191e-006 -5.27751e-005 3.3845 -4.80216 7.17203 -178.621 -14.5663 -84.5315 10.3364 -45.668 26.1759 -16.0515 0 3.18055e-015 -65.0463 -30.2585 -53.3753 178.998 15.1251 93.8342 74.5833 63.8097 -91.8106 -8.56305 5.96354e-016 -3.18055e-015 -48.0142 26.3155 40.1003 7.5999 8.68383 175.094 -11.782 7.95139e-016 1.98785e-016 9.73992 4.97706 -8.91661 90 -5.59082e-016 3.97569e-016 7.01573 -13.2426 175.567 -12.9803 -1.59028e-015 1.19271e-015 13.5151 -2.04144 -0.469012 90 6.21202e-017 1.59028e-015 
273.792 89.3442 -4.24709 -17.9083 -81.9478 -102.709 2.14852 -1.51514 -1.20885 4.26664 -3.07372 -2.36558 4.26664 -3.07372 -2.36559 -8.30788e-012 -9.0191e-006 -5.27751e-005 3.38832 -4.85652 7.24309 -178.621 -14.5338 -84.5212 10.3965 -45.696 26.2491 -16.0412 6.36111e-015 -7.95139e-015 -65.1303 -30.2369 -53.4705 178.988 15.1494 93.866 74.7946 63.7941 -91.89 -8.59247 9.93923e-017 -3.18055e-015 -47.9954 26.3156 40.0933 7.59411 8.61218 175.061 -11.7419 7.95139e-016 1.98785e-016 9.67081 4.91238 -8.7386 90 3.33586e-015 -0 7.00802 -13.2377 175.56 -12.9583 3.18056e-015 -0 13.4789 -2.02699 -0.506873 90 8.69683e-017 -3.18055e-015 
273.767 89.3451 -4.22022 -17.9422 -81.9353 -102.732 2.15737 -1.52124 -1.20843 4.28425 -3.08622 -2.36606 4.28425 -3.08622 -2.36607 -8.30828e-012 -9.0191e-006 -5.27751e-005 3.39363 -4.88924 7.2956 -178.615 -14.5075 -84.4878 10.4994 -45.6874 26.3566 -16.0473 6.36111e-015 3.18055e-015 -65.1488 -30.2544 -53.5143 178.995 15.1291 93.8442 74.897 63.7557 -91.8958 -8.61391 4.96962e-016 -0 -48.2836 26.3867 40.3965 7.5667 8.61702 175.04 -11.7843 7.95139e-016 -0 9.6774 4.91407 -8.78027 90 3.78933e-016 -0 6.97303 -13.2446 175.529 -12.9957 0 1.19271e-015 13.4753 -2.04887 -0.516008 90 -9.31803e-018 3.18055e-015 
273.74 89.3456 -4.19918 -18.1771 -81.9385 -102.986 2.15971 -1.52225 -1.20808 4.28925 -3.08811 -2.35685 4.28925 -3.08811 -2.35686 -8.30788e-012 -9.0191e-006 -5.27751e-005 3.42908 -4.9246 7.32271 -178.607 -14.4737 -84.4412 10.5442 -45.5531 26.4191 -16.0118 -3.18055e-015 -0 -65.1218 -30.2709 -53.4911 179.001 15.1254 93.8234 75.2904 63.6876 -92.2001 -8.5554 9.93923e-017 1.59028e-015 -47.9865 26.3996 40.1594 7.53495 8.72267 175.045 -11.8189 7.95139e-016 -0 9.71373 4.95712 -8.86761 90 3.85145e-016 -0 6.9259 -13.2066 175.52 -13.0238 0 1.19271e-015 13.4644 -2.03523 -0.492301 90 -1.11816e-016 -1.59028e-015 
273.712 89.346 -4.18605 -18.5524 -81.937 -103.369 2.15878 -1.5195 -1.20779 4.28761 -3.08251 -2.3524 4.28761 -3.08252 -2.35241 -8.30748e-012 -9.0191e-006 -5.27751e-005 3.51779 -4.94239 7.3227 -178.592 -14.4639 -84.3807 10.3982 -45.2643 26.3302 -15.8849 6.36111e-015 4.77083e-015 -64.9456 -30.2764 -53.2503 179.014 15.0869 93.7847 75.3583 63.6169 -92.1872 -8.48925 -8.94531e-016 -0 -47.6854 26.5329 40.0056 7.52564 8.73683 175.03 -11.8054 0 -3.97569e-016 9.69988 4.93094 -8.81785 90 -2.61526e-015 -3.97569e-016 6.86968 -13.1848 175.5 -13.0713 -3.18056e-015 -7.95139e-016 13.4671 -2.06524 -0.464583 90 -4.03781e-017 -1.59028e-015 
273.688 89.3461 -4.18026 -18.9656 -81.9524 -103.796 2.15379 -1.51182 -1.20758 4.2779 -3.06701 -2.34927 4.2779 -3.06701 -2.34928 -8.30708e-012 -9.0191e-006 -5.27751e-005 3.68673 -4.95108 7.38023 -178.585 -14.4493 -84.3445 10.1611 -45.0009 26.1685 -15.7201 3.18055e-015 -3.18055e-015 -64.6002 -30.544 -53.0374 179.023 15.003 93.7688 75.5485 63.5604 -92.2263 -8.322 9.93923e-017 -0 -47.5508 26.6071 39.9716 7.53393 8.72072 175.005 -11.7306 -1.59028e-015 -1.98785e-016 9.6632 4.89714 -8.70898 90 1.12438e-015 -0 6.8085 -13.1421 175.484 -13.1045 3.18056e-015 3.97569e-016 13.4702 -2.0698 -0.430968 90 -6.21202e-017 1.59028e-015 
273.666 89.3461 -4.1854 -19.2015 -81.9747 -104.053 2.14966 -1.50324 -1.20745 4.26977 -3.04978 -2.34998 4.26977 -3.04978 -2.34999 -8.30669e-012 -9.0191e-006 -5.27751e-005 3.85007 -4.98453 7.48106 -178.587 -14.414 -84.3413 9.91328 -44.8964 25.969 -15.5244 3.18055e-015 1.59028e-015 -64.4548 -30.568 -52.8599 179.022 14.9356 93.7899 75.7329 63.4392 -92.2741 -8.20541 3.97569e-016 -3.18055e-015 -47.63 26.5637 40.0291 7.47781 8.76416 175.018 -11.7988 0 3.97569e-016 9.70877 4.90586 -8.74548 90 -3.63403e-015 -1.19271e-015 6.77793 -13.1237 175.484 -13.1042 0 -0 13.4658 -2.07756 -0.393551 90 4.34841e-017 -1.59028e-015 
273.644 89.3462 -4.19585 -19.2203 -81.9935 -104.075 2.14907 -1.50167 -1.20741 4.26459 -3.04674 -2.35877 4.26459 -3.04674 -2.35878 -8.30828e-012 -9.0191e-006 -5.27751e-005 3.98556 -4.99832 7.54358 -178.596 -14.4145 -84.3774 9.72985 -44.8608 25.8058 -15.5093 -9.54166e-015 -3.18055e-015 -64.3445 -30.5618 -52.7081 179.027 14.9259 93.7743 76.0871 63.3856 -92.5492 -8.15792 -1.49088e-016 3.18055e-015 -47.6363 26.6618 40.0876 7.4553 8.75004 175.015 -11.8187 -1.59028e-015 -1.98785e-016 9.73396 4.91238 -8.78676 90 8.69683e-016 3.97569e-016 6.78717 -13.1302 175.484 -13.06 -3.18056e-015 -1.59028e-015 13.4489 -2.08521 -0.402058 90 -1.86361e-017 3.18055e-015 
273.625 89.3428 -4.2117 -19.1351 -82.0048 -103.997 2.14837 -1.50445 -1.21174 4.26395 -3.05247 -2.36732 4.26395 -3.05247 -2.36733 -8.30867e-012 -9.0191e-006 -5.27751e-005 4.05068 -5.01318 7.56936 -178.611 -14.4153 -84.4349 9.68254 -44.9565 25.7008 -15.6896 3.18055e-015 6.36111e-015 -64.3007 -30.5542 -52.6359 179.038 14.9435 93.7248 75.9514 63.4058 -92.42 -8.16468 7.45442e-016 -0 -47.5548 26.6098 39.985 7.45163 8.77177 175.009 -11.84 2.38542e-015 5.96354e-016 9.76252 4.92392 -8.7829 90 8.69683e-016 -7.95139e-016 6.78741 -13.1394 175.474 -13.0629 -4.77083e-015 -7.95139e-016 13.4584 -2.07539 -0.38941 90 2.48481e-017 4.77083e-015 
273.609 89.339 -4.22916 -18.8528 -82.0269 -103.719 2.14758 -1.51344 -1.21768 4.26272 -3.07065 -2.37889 4.26272 -3.07065 -2.3789 -8.30669e-012 -9.0191e-006 -5.27751e-005 4.08783 -5.01168 7.61467 -178.631 -14.432 -84.5235 9.58351 -45.021 25.5681 -15.8817 -6.36111e-015 -3.18055e-015 -64.3565 -30.544 -52.7159 179.034 14.9331 93.7435 75.7641 63.3407 -92.2392 -8.24207 7.95139e-016 4.77083e-015 -47.3845 26.6475 39.8559 7.43404 8.70558 175.003 -11.8603 -7.95139e-016 -1.98785e-016 9.77379 4.89255 -8.71868 90 -1.31074e-015 -0 6.84501 -13.1664 175.491 -12.9669 3.18056e-015 -0 13.4274 -2.06106 -0.449636 90 -5.59082e-017 -1.59028e-015 
